<?xml version="1.0" encoding="UTF-8" standalone="no"?>
<svg
   xmlns:dc="http://purl.org/dc/elements/1.1/"
   xmlns:cc="http://creativecommons.org/ns#"
   xmlns:rdf="http://www.w3.org/1999/02/22-rdf-syntax-ns#"
   xmlns:svg="http://www.w3.org/2000/svg"
   xmlns="http://www.w3.org/2000/svg"
   viewBox="0 0 2560 1440"
   height="1440"
   width="2560"
   xml:space="preserve"
   id="svg2"
   version="1.1"><metadata
     id="metadata8"><rdf:RDF><cc:Work
         rdf:about=""><dc:format>image/svg+xml</dc:format><dc:type
           rdf:resource="http://purl.org/dc/dcmitype/StillImage" /></cc:Work></rdf:RDF></metadata><defs
     id="defs6"><clipPath
       id="clipPath18"
       clipPathUnits="userSpaceOnUse"><path
         id="path16"
         d="M 0,1080 H 1920 V 0 H 0 Z" /></clipPath><clipPath
       id="clipPath46"
       clipPathUnits="userSpaceOnUse"><path
         id="path44"
         d="M 0,1080 H 1920 V 0 H 0 Z" /></clipPath></defs><g
     transform="matrix(1.3333333,0,0,-1.3333333,0,1440)"
     id="g10"><g
       id="g12"><g
         clip-path="url(#clipPath18)"
         id="g14"><g
           transform="translate(75.04,455.6431)"
           id="g20"><path
             id="path22"
             style="fill:#d7df23;fill-opacity:1;fill-rule:nonzero;stroke:#066651;stroke-width:66.84400177;stroke-linecap:butt;stroke-linejoin:miter;stroke-miterlimit:10;stroke-dasharray:none;stroke-opacity:1"
             d="M 0,0 C 0,40.85 21.876,40.85 21.876,81.699 21.876,122.551 0,122.551 0,163.403 c 0,40.851 21.876,40.851 21.876,81.703" /></g><g
           transform="translate(155.6514,455.6431)"
           id="g24"><path
             id="path26"
             style="fill:#ffffff;fill-opacity:1;fill-rule:nonzero;stroke:#2f9e96;stroke-width:66.84400177;stroke-linecap:butt;stroke-linejoin:miter;stroke-miterlimit:10;stroke-dasharray:none;stroke-opacity:1"
             d="M 0,0 C 0,40.85 21.876,40.85 21.876,81.699 21.876,122.551 0,122.551 0,163.403 c 0,40.851 21.876,40.851 21.876,81.703" /></g><g
           transform="translate(245.4913,455.6431)"
           id="g28"><path
             id="path30"
             style="fill:#ffffff;fill-opacity:1;fill-rule:nonzero;stroke:#066651;stroke-width:66.84400177;stroke-linecap:butt;stroke-linejoin:miter;stroke-miterlimit:10;stroke-dasharray:none;stroke-opacity:1"
             d="M 0,0 C 0,40.85 21.876,40.85 21.876,81.699 21.876,122.551 0,122.551 0,163.403 c 0,40.851 21.876,40.851 21.876,81.703" /></g></g></g><text
       id="text34"
       style="font-variant:normal;font-weight:900;font-stretch:normal;font-size:355.17050171px;font-family:'Montserrat Black';-inkscape-font-specification:Montserrat-Black;writing-mode:lr-tb;fill:#066651;fill-opacity:1;fill-rule:nonzero;stroke:none"
       transform="matrix(1,0,0,-0.98825775,328.937,455.6426)"><tspan
         id="tspan32"
         y="0"
         x="0 228.7298 353.03949 549.09357 781.37512">FILTR</tspan></text>
<text
       id="text38"
       style="font-variant:normal;font-weight:900;font-stretch:normal;font-size:364.70300293px;font-family:'Montserrat Black';-inkscape-font-specification:Montserrat-Black;writing-mode:lr-tb;fill:#2f9e96;fill-opacity:1;fill-rule:nonzero;stroke:none"
       transform="matrix(1,0,0,-0.96242696,1367.8682,453.8545)"><tspan
         id="tspan36"
         y="0"
         x="0 243.6216">EX</tspan></text>
<g
       id="g40"><g
         clip-path="url(#clipPath46)"
         id="g42"><path
           id="path48"
           style="fill:none;stroke:#2f9e96;stroke-width:1;stroke-linecap:butt;stroke-linejoin:miter;stroke-miterlimit:10;stroke-dasharray:none;stroke-opacity:1"
           d="m 1467.432,548.625 h 113.787 v 59.67 h -113.787 z m 5.836,88.452 h 122.904 v 62.478 H 1388.656 V 453.854 h 212.258 v 62.478 h -127.646 z" /><g
           transform="translate(1706.6772,453.8545)"
           id="g50"><path
             id="path52"
             style="fill:none;stroke:#2f9e96;stroke-width:1;stroke-linecap:butt;stroke-linejoin:miter;stroke-miterlimit:10;stroke-dasharray:none;stroke-opacity:1"
             d="M 0,0 62.729,95.823 22.976,95.472 87.164,0 h 98.47 L 70.023,155.844 V 98.28 L 180.163,245.7 H 87.529 L 24.8,154.089 66.011,154.44 1.824,245.7 H -94.823 L 15.317,95.121 15.682,153.036 -98.105,0 Z" /></g></g></g></g></svg>